PathFileType	4	(X/Y/Z)	TVC_32_BWA_08_walk_RCNL2025.trc
DataRate	CameraRate	NumFrames	NumMarkers	Units	OrigDataRate	OrigDataStartFrame	OrigNumFrames
100	100	8	27	mm	100	273	436
Frame#	Time	R_Shoulder			L_Shoulder			C7			J_Notch			R_Elbow			L_Elbow			R_Wrist			L_Wrist			R_Asis			L_Asis			R_Psis			L_Psis			Sacral			Thoracic			Sternum			R_Thigh_Lateral			R_Knee_Lateral			R_Shank_Lateral			R_Ankle_Lateral			R_Heel			R_Toe			L_Thigh_Lateral			L_Knee_Lateral			L_Shank_Lateral			L_Ankle_Lateral			L_Heel			L_Toe		
		X1	Y1	Z1	X2	Y2	Z2	X3	Y3	Z3	X4	Y4	Z4	X5	Y5	Z5	X6	Y6	Z6	X7	Y7	Z7	X8	Y8	Z8	X9	Y9	Z9	X10	Y10	Z10	X11	Y11	Z11	X12	Y12	Z12	X13	Y13	Z13	X14	Y14	Z14	X15	Y15	Z15	X16	Y16	Z16	X17	Y17	Z17	X18	Y18	Z18	X19	Y19	Z19	X20	Y20	Z20	X21	Y21	Z21	X22	Y22	Z22	X23	Y23	Z23	X24	Y24	Z24	X25	Y25	Z25	X26	Y26	Z26	X27	Y27	Z27
273	2.72000000	-21.521770	1457.143311	479.517120	-19.097910	1437.943359	97.573700	-75.953957	1501.828979	289.036591	87.834351	1405.151855	299.080658	-162.376984	1141.149780	598.047119	30.991619	1112.212524	-11.864300	-156.091599	870.923828	535.767563	225.751167	925.276306	26.734211	18.233006	988.933472	428.677612	-10.785149	1003.620178	151.184891	-179.357452	1021.199646	363.840149	-188.507050	1022.453125	261.816803	-183.932251	1021.826385	312.828476	-150.066132	1246.170532	303.198883	111.195511	1259.577271	290.228577	9.974677	617.468506	487.048950	90.860497	500.631561	428.260895	85.652283	290.698883	480.676239	128.701675	76.349503	402.562042	78.150352	48.242264	336.451447	278.499268	46.584476	389.759094	-142.896698	666.844666	101.896515	-181.207458	504.008301	171.715714	-264.248291	361.064819	112.751076	-329.472961	92.576973	189.158920	-398.888397	94.805702	236.628082	-198.959320	39.825878	217.478882
274	2.73000000	-12.895350	1458.305908	480.997345	-10.096561	1439.241821	99.043343	-67.297661	1503.302856	290.387848	96.270447	1406.255737	300.545471	-152.631104	1141.421997	598.928223	37.784111	1112.974487	-9.863760	-146.573318	871.053009	537.399002	229.236855	922.744415	29.319680	25.390482	990.393555	430.827515	-3.015845	1005.150208	152.912735	-171.879196	1022.753174	365.267181	-180.888123	1024.173340	263.306763	-176.383659	1023.463257	314.286972	-142.146408	1247.847656	304.645782	119.271309	1260.622192	291.801483	15.595414	618.367798	487.844330	95.740036	501.054321	428.851501	88.764633	290.988159	481.012787	129.710373	76.478821	402.513672	78.563530	48.671555	336.612244	279.149384	45.608891	389.234741	-134.546051	668.475647	102.485870	-172.502380	504.885406	171.309814	-258.583740	363.361572	112.730614	-327.891937	95.383362	188.856277	-396.911194	99.264793	236.596878	-198.527618	39.721077	217.284927
275	2.74000000	-4.314855	1459.660278	482.483765	-1.257865	1440.602051	100.549652	-58.739540	1504.874023	291.759949	104.611053	1407.471313	302.008148	-142.675552	1141.759399	599.861633	44.404140	1113.877563	-7.946066	-136.624683	871.260620	539.080566	232.431229	920.303375	31.741572	32.579681	991.904480	432.949646	4.639045	1006.902710	154.644455	-164.401962	1024.328613	366.773712	-173.326569	1025.976196	264.880371	-168.864265	1025.152405	315.827042	-134.301758	1249.605713	306.236267	127.257378	1261.776123	293.416656	20.703386	619.230530	488.528961	100.107040	501.394623	429.384216	91.351830	291.210907	481.236328	130.526672	76.610603	402.412201	78.893982	49.011608	336.724030	279.674103	44.901474	388.805511	-125.840187	670.179871	102.864723	-163.244751	505.732513	170.536621	-252.570801	365.768494	112.501236	-326.126129	98.401016	188.442520	-394.627167	104.091698	236.500229	-198.131897	39.581036	217.063614
276	2.75000000	4.208497	1461.178223	483.977112	7.383447	1442.001465	102.092453	-50.296810	1506.510498	293.162354	112.845329	1408.774902	303.466980	-132.539703	1142.155396	600.863281	50.814514	1114.901489	-6.117222	-126.244370	871.545685	540.806244	235.346771	917.985870	33.978244	39.822948	993.441833	434.999207	12.174779	1008.837830	156.368332	-156.920181	1025.905151	368.361053	-165.823822	1027.818481	266.529999	-161.372002	1026.861816	317.445526	-126.533302	1251.408325	307.963135	135.150726	1263.017822	295.064880	25.329031	620.053406	489.127197	103.983009	501.650391	429.875916	93.471069	291.368652	481.378418	131.159714	76.729141	402.268890	79.142509	49.268700	336.796967	280.091736	44.402069	388.466980	-116.738014	671.915161	103.010498	-153.393661	506.522064	169.369400	-246.154739	368.265656	112.043755	-324.140289	101.651962	187.911728	-391.990784	109.311577	236.329926	-197.782059	39.419193	216.827057
277	2.76000000	12.666453	1462.825928	485.476227	15.796967	1443.418091	103.668335	-41.983967	1508.179565	294.601837	120.963943	1410.139893	304.917725	-122.250237	1142.599854	601.949402	56.976852	1116.022949	-4.381412	-115.434021	871.903900	542.569641	237.995880	915.818573	36.010355	47.133041	994.984009	436.939728	19.590103	1010.908691	158.075974	-149.434540	1027.466064	370.026031	-158.382324	1029.658569	268.243561	-153.908432	1028.562317	319.134796	-118.843140	1253.220093	309.813263	142.947556	1264.322266	296.734039	29.525320	620.835022	489.668610	107.406387	501.826416	430.342896	95.194145	291.467743	481.471802	131.627991	76.825150	402.096771	79.316895	49.454090	336.842712	280.423706	44.057384	388.214142	-107.205933	673.642517	102.906975	-142.911667	507.231537	167.792480	-239.272675	370.833252	111.342026	-321.891205	105.163429	187.259506	-388.952728	114.950531	236.075439	-197.477982	39.259441	216.587387
278	2.77000000	21.053413	1464.565308	486.978241	23.957857	1444.830078	105.270729	-33.812622	1509.848755	296.081726	128.959061	1411.536987	306.353821	-111.829941	1143.078979	603.135925	62.852974	1117.215942	-2.741304	-104.198547	872.327240	544.363861	240.390640	913.821014	37.821250	54.511639	996.511902	438.746399	26.887173	1013.063538	159.762390	-141.952103	1028.997803	371.760376	-151.005371	1031.457397	270.004974	-146.478737	1030.227600	320.882675	-111.234398	1255.007568	311.768616	150.643143	1265.662109	298.409760	33.363243	621.575439	490.185608	110.428940	501.932343	430.799744	96.600235	291.517395	481.546661	131.956177	76.894592	401.908691	79.428856	49.581390	336.872955	280.691742	43.822277	388.040283	-97.220352	675.327881	102.545113	-131.766937	507.844818	165.802750	-231.855164	373.451294	110.383461	-319.327759	108.965317	186.482666	-385.461151	121.031601	235.723816	-197.204422	39.136707	216.354019
279	2.78000000	29.365908	1466.355347	488.478638	31.847727	1446.216431	106.890305	-25.791460	1511.487427	297.601868	136.824249	1412.936035	307.766632	-101.296761	1143.574951	604.437500	68.406395	1118.452637	-1.198331	-92.546196	872.803925	546.181732	242.542648	912.005005	39.397233	61.948795	998.008850	440.408234	34.071217	1015.247498	161.425690	-134.486038	1030.488647	373.550781	-143.697083	1033.180298	271.795135	-139.091560	1031.834473	322.672958	-103.711205	1256.740356	313.807190	158.231888	1267.008301	300.076141	36.924480	622.276367	490.710205	113.111107	501.980499	431.258392	97.769119	291.527954	481.628021	132.172043	76.937393	401.715790	79.491394	49.664371	336.898041	280.915649	43.660164	387.936646	-86.769440	676.943787	101.923523	-119.935669	508.353210	163.410538	-223.829056	376.099548	109.159477	-316.391266	113.086426	185.579132	-381.462555	127.569588	235.260208	-196.925568	39.096359	216.130371
280	2.79000000	37.601971	1468.153564	489.971680	39.455051	1447.557251	108.515442	-17.926371	1513.067749	299.158569	144.554398	1414.306885	309.146057	-90.663116	1144.066772	605.866333	73.604019	1119.703979	0.247131	-80.488441	873.318848	548.016083	244.462830	910.374390	40.727726	69.423500	999.460022	441.928741	41.149960	1017.405273	163.066406	-127.054390	1031.927734	375.379700	-136.462204	1034.797607	273.593079	-131.758297	1033.362671	324.486389	-96.278496	1258.392456	315.904144	165.707474	1268.331543	301.716522	40.292809	622.940063	491.270874	115.517136	501.984070	431.727570	98.775398	291.509521	481.734100	132.303970	76.956116	401.526611	79.516899	49.715488	336.926208	281.111786	43.542740	387.892426	-75.854164	678.470337	101.048653	-107.404396	508.756287	160.639603	-215.121460	378.757202	107.666191	-313.016571	117.549774	184.547577	-376.902832	134.565170	234.669037	-196.579926	39.192074	215.910385
